# xmcd
#
# Track frame offsets:
# 150
# 12752
# 30416
# 42884
# 67484
# 77199
# 92105
# 104834
# 116193
# 129109
#
# Disc length: 1917 seconds
#
#
# Revision: 0
# Processed by: cddbd v1.5.2PL0 Copyright (c) Steve Scherf et al.
# Submitted via: Nero 7, 11, 10, 0 
#
DISCID=85077b0a
DTITLE=Frank Bjørdal and His Bluesrevue - Still Learning The Game
DYEAR=2012
DGENRE=Blues
TTITLE0=First Time Again
TTITLE1=Welcome To The Club
TTITLE2=Baby, Please Hold On To Me
TTITLE3=I'm Ready
TTITLE4=Hot And Cold
TTITLE5=Lost Sight Of The World
TTITLE6=Still Learning The Game
TTITLE7=Take A Step, Walk A Mile
TTITLE8=Bill's Bounce
TTITLE9=Time Will Tell
EXTD=
EXTT0=First Time Again
EXTT1=Welcome To The Club
EXTT2=Baby, Please Hold On To Me
EXTT3=I'm Ready
EXTT4=Hot And Cold
EXTT5=Lost Sight Of The World
EXTT6=Still Learning The Game
EXTT7=Take A Step, Walk A Mile
EXTT8=Bill's Bounce
EXTT9=Time Will Tell
PLAYORDER=
